<svg width="524" height="512" viewBox="0 0 524 512" fill="none" xmlns="http://www.w3.org/2000/svg">
<path d="M263.799 355.092C263.801 295.357 304.915 175.26 436.875 181.725C442.452 234.567 398.046 348.332 263.799 355.092Z" fill="#961502" stroke="#FDF1F6" stroke-width="7"/>
<path d="M82.1289 181.742C175.51 185.234 238.783 227.083 257.5 355.503C206.466 355.503 69.4408 302.332 82.1289 181.742Z" fill="#961502" stroke="#FDF1F6" stroke-width="7"/>
<path d="M259.938 355.156C227.627 316.123 182.392 211.846 259.938 107.004C294.616 146.536 343.166 251.51 259.938 355.156Z" fill="#961502" stroke="#FDF1F6" stroke-width="7"/>
<path d="M5.79688 357.884C45.551 326.16 151.754 281.745 258.532 357.884C218.27 391.934 111.357 439.603 5.79688 357.884Z" fill="#961502" stroke="#FDF1F6" stroke-width="7"/>
<path d="M265.062 357.103C304.817 325.378 411.019 280.963 517.797 357.103C477.536 391.153 370.622 438.822 265.062 357.103Z" fill="#961502" stroke="#FDF1F6" stroke-width="7"/>
</svg>
